<svg width="31" height="11" viewBox="0 0 31 11" fill="none" xmlns="http://www.w3.org/2000/svg">
<g clip-path="url(#clip0_702_5164)">
<path d="M3.40465 10.9954C2.485 10.9588 1.73258 10.7072 1.14426 10.2398C1.03198 10.1505 0.764429 9.8828 0.674668 9.76989C0.436094 9.4699 0.273896 9.17794 0.16571 8.85402C-0.167191 7.85689 0.00414153 6.54843 0.655771 5.11242C1.2137 3.88302 2.07462 2.66369 3.57661 0.974935C3.79786 0.726437 4.45674 -0.000305176 4.46099 -0.000305176C4.46256 -0.000305176 4.42666 0.0618969 4.38146 0.137643C3.99093 0.791791 3.65676 1.56231 3.47472 2.22938C3.18229 3.29973 3.21757 4.21828 3.57803 4.93054C3.82668 5.42123 4.25296 5.84625 4.73232 6.0812C5.5715 6.49237 6.80011 6.52639 8.30053 6.18073C8.40384 6.15679 13.5227 4.79794 19.6759 3.161C25.829 1.52389 30.8643 0.185515 30.8651 0.186616C30.8668 0.188036 16.5695 6.30592 9.14759 9.47982C7.9722 9.98232 7.65788 10.1092 7.1053 10.3033C5.69275 10.7993 4.42744 11.036 3.40465 10.9954Z" fill="white"/>
</g>
<defs>
<clipPath id="clip0_702_5164">
<rect width="30.8651" height="11" fill="white"/>
</clipPath>
</defs>
</svg>
