<svg width="14" height="14" viewBox="0 0 14 14" fill="none" xmlns="http://www.w3.org/2000/svg">
<path d="M4.88521 12.6001C3.89282 12.2918 2.99406 11.7215 2.27641 10.9446C2.50731 10.6597 2.65125 10.3096 2.6898 9.93911C2.72836 9.5686 2.65978 9.19455 2.49284 8.86482C2.3259 8.53509 2.06819 8.26468 1.75269 8.08819C1.43719 7.9117 1.07826 7.83716 0.721807 7.87411C0.640602 7.46028 0.599795 7.03898 0.600007 6.61662C0.600007 5.96431 0.696007 5.3351 0.874807 4.74396H0.900007C1.20593 4.74406 1.50684 4.66304 1.77431 4.50855C2.04178 4.35406 2.26698 4.13119 2.42867 3.861C2.59035 3.5908 2.68317 3.28219 2.69836 2.96431C2.71356 2.64643 2.65062 2.32976 2.51551 2.04421C3.21888 1.36282 4.06952 0.867503 4.99561 0.600079C5.14632 0.907944 5.37596 1.16643 5.65912 1.34694C5.94228 1.52745 6.26792 1.62295 6.60001 1.62286C6.93209 1.62295 7.25773 1.52745 7.54089 1.34694C7.82405 1.16643 8.05369 0.907944 8.2044 0.600079C9.13049 0.867503 9.98113 1.36282 10.6845 2.04421C10.5484 2.33176 10.4855 2.65084 10.5019 2.97091C10.5182 3.29098 10.6133 3.60133 10.7779 3.87225C10.9426 4.14316 11.1713 4.36558 11.4422 4.51821C11.7131 4.67084 12.0171 4.74857 12.3252 4.74396C12.5079 5.34999 12.6006 5.98149 12.6 6.61662C12.6 7.04733 12.558 7.46806 12.4782 7.87411C12.1218 7.83716 11.7628 7.9117 11.4473 8.08819C11.1318 8.26468 10.8741 8.53509 10.7072 8.86482C10.5402 9.19455 10.4717 9.5686 10.5102 9.93911C10.5488 10.3096 10.6927 10.6597 10.9236 10.9446C10.206 11.7215 9.30719 12.2918 8.3148 12.6001C8.19827 12.2222 7.96942 11.8926 7.66123 11.6587C7.35305 11.4249 6.98145 11.2989 6.60001 11.2989C6.21856 11.2989 5.84696 11.4249 5.53878 11.6587C5.23059 11.8926 5.00174 12.2222 4.88521 12.6001Z" stroke="#87888C" stroke-width="1.2" stroke-linejoin="round"/>
<path d="M6.6004 8.80093C6.87617 8.80093 7.14925 8.74442 7.40403 8.63462C7.65881 8.52483 7.89032 8.3639 8.08532 8.16102C8.28032 7.95815 8.43501 7.7173 8.54054 7.45223C8.64608 7.18716 8.7004 6.90307 8.7004 6.61616C8.7004 6.32925 8.64608 6.04515 8.54054 5.78008C8.43501 5.51501 8.28032 5.27417 8.08532 5.07129C7.89032 4.86842 7.65881 4.70749 7.40403 4.59769C7.14925 4.4879 6.87617 4.43139 6.6004 4.43139C6.04344 4.43139 5.5093 4.66157 5.11547 5.07129C4.72165 5.48102 4.5004 6.03672 4.5004 6.61616C4.5004 7.19559 4.72165 7.7513 5.11547 8.16102C5.5093 8.57075 6.04344 8.80093 6.6004 8.80093V8.80093Z" stroke="#87888C" stroke-width="1.2" stroke-linejoin="round"/>
</svg>
