<svg width="23" height="24" viewBox="0 0 23 24" fill="none" xmlns="http://www.w3.org/2000/svg">
<path d="M10.3462 11.5833C13.3801 11.5833 15.8396 9.15821 15.8396 6.16667C15.8396 3.17512 13.3801 0.75 10.3462 0.75C7.31221 0.75 4.85271 3.17512 4.85271 6.16667C4.85271 9.15821 7.31221 11.5833 10.3462 11.5833Z" stroke="#20AEF3" stroke-width="1.5"/>
<path d="M14.7412 15.9167H21.3333M15.8399 22.4167H2.94786C2.63625 22.4167 2.32819 22.3514 2.04413 22.2251C1.76006 22.0988 1.50649 21.9144 1.30024 21.6841C1.09398 21.4538 0.939769 21.1829 0.847827 20.8893C0.755886 20.5957 0.72832 20.2862 0.766959 19.9813L1.19545 16.597C1.2951 15.8107 1.68262 15.0875 2.28516 14.5632C2.8877 14.0389 3.66374 13.7497 4.46735 13.75H4.85299L15.8399 22.4167ZM18.0373 12.6667V19.1667V12.6667Z" stroke="#20AEF3" stroke-width="1.5" stroke-linecap="round" stroke-linejoin="round"/>
</svg>
